<?xml version="1.0" standalone="no"?>
<!DOCTYPE svg PUBLIC "-//W3C//DTD SVG 1.1//EN" "http://www.w3.org/Graphics/SVG/1.1/DTD/svg11.dtd" >
<!--
2013-9-30: Created.
-->
<svg>
<metadata>
Created by iconfont
</metadata>
<defs>

<font id="iconfont" horiz-adv-x="1024" >
  <font-face
    font-family="iconfont"
    font-weight="500"
    font-stretch="normal"
    units-per-em="1024"
    ascent="896"
    descent="-128"
  />
    <missing-glyph />
    
    <glyph glyph-name="15tian" unicode="&#58885;" d="M953.229167 500.311165c-23.271006 55.019081-56.582693 104.428398-99.008968 146.854673-42.426275 42.426275-91.835591 75.737962-146.854673 99.008968C650.395 770.27162 589.885881 782.488873 527.520485 782.488873S404.64597 770.27162 347.675444 746.174805c-55.019081-23.271006-104.428398-56.582693-146.854673-99.008968-42.426275-42.426275-75.737962-91.835591-99.008968-146.854673-24.096814-56.970526-36.314067-117.478621-36.314067-179.845041 0-120.279411 45.975101-234.1826 129.456421-320.726675l22.095227 21.313422c-77.932953 80.791048-120.852462 187.124841-120.852462 299.413254 0 58.235332 11.402701 114.719788 33.889855 167.885662 21.723767 51.359738 52.826136 97.489358 92.442412 137.105634 39.617299 39.616276 85.745896 70.718645 137.105634 92.442412 53.165874 22.487154 109.650329 33.889855 167.885662 33.889855 58.235332 0 114.719788-11.402701 167.885662-33.889855 51.358715-21.723767 97.489358-52.826136 137.105634-92.442412 39.616276-39.617299 70.718645-85.745896 92.442412-137.105634 22.487154-53.165874 33.888831-109.650329 33.888831-167.885662 0-58.235332-11.402701-114.719788-33.888831-167.885662-21.723767-51.358715-52.826136-97.489358-92.442412-137.105634-39.617299-39.616276-85.74692-70.718645-137.105634-92.442412-53.165874-22.487154-109.650329-33.888831-167.885662-33.888831-52.937676 0-104.626919 9.473769-153.631006 28.15934l-10.937097-28.684296c52.509934-20.020986 107.878986-30.173207 164.568103-30.173207 62.365396 0 122.874515 12.217253 179.845041 36.314067 55.019081 23.271006 104.428398 56.582693 146.854673 99.008968s75.737962 91.835591 99.008968 146.854673c24.096814 56.970526 36.314067 117.479645 36.314067 179.845041S977.325981 443.340639 953.229167 500.311165zM427.845345 115.372026 427.845345 513.606982l-62.579267 0c-26.548656-46.786583-73.957409-84.09121-142.226259-111.884207l0-68.26885c46.756907 15.170514 88.476077 37.274952 125.159558 66.37164l0-284.45354L427.845345 115.372026zM655.409201 166.573151c-37.927821 0-61.33595 21.482267-70.164013 64.476477L505.59615 212.086741c18.96391-68.26885 68.892043-102.403275 149.813051-102.403275 94.817506 2.548032 143.470599 47.408753 146.018631 134.641513-3.793396 79.646991-46.164413 121.367185-127.055744 125.159558-30.341029 0-56.891731-8.237615-79.645968-24.65247l9.481955 98.609879 176.360683 0 0 66.372663L535.938202 509.81461l-15.169491-223.769436 66.370617-1.89721c13.896498 17.688871 36.031635 27.171849 66.372663 28.445866 44.237527-1.274016 66.994834-25.927509 68.269873-73.957409C719.233831 194.367171 697.128371 170.366547 655.409201 166.573151z"  horiz-adv-x="1024" />

    
    <glyph glyph-name="liwu" unicode="&#58911;" d="M913.066667 564.533333l-102.4 0c14.222222 28.444444 19.911111 62.577778 17.066667 93.866667C824.888889 698.222222 810.666667 732.355556 785.066667 752.266667c-17.066667 14.222222-42.666667 22.755556-71.111111 22.755556-54.044444 0-113.777778-28.444444-159.288889-76.8-19.911111-19.911111-31.288889-39.822222-42.666667-56.888889-11.377778 19.911111-25.6 39.822222-42.666667 56.888889-48.355556 48.355556-108.088889 76.8-159.288889 76.8-28.444444 0-51.2-8.533333-71.111111-22.755556C213.333333 732.355556 199.111111 698.222222 196.266667 658.4 193.422222 627.111111 199.111111 595.822222 213.333333 564.533333L110.933333 564.533333c-54.044444 0-99.555556-45.511111-99.555556-102.4l0-45.511111c0-51.2 39.822222-96.711111 88.177778-102.4l0-329.955556c0-93.866667 73.955556-170.666667 167.822222-170.666667l492.088889 0c91.022222 0 167.822222 76.8 167.822222 170.666667L927.288889 317.066667c51.2 5.688889 88.177778 48.355556 88.177778 102.4l0 45.511111C1015.466667 519.022222 969.955556 564.533333 913.066667 564.533333L913.066667 564.533333zM603.022222 649.866667c39.822222 42.666667 85.333333 56.888889 113.777778 56.888889 11.377778 0 22.755556-2.844444 28.444444-8.533333 5.688889-5.688889 14.222222-19.911111 17.066667-42.666667 0-14.222222 0-54.044444-28.444444-88.177778l-179.2 0C563.2 598.666667 580.266667 627.111111 603.022222 649.866667L603.022222 649.866667zM261.688889 655.555556c0 22.755556 8.533333 36.977778 17.066667 42.666667 5.688889 5.688889 17.066667 8.533333 28.444444 8.533333 28.444444 0 71.111111-14.222222 113.777778-56.888889 22.755556-22.755556 39.822222-51.2 48.355556-82.488889l-179.2 0C264.533333 601.511111 261.688889 638.488889 261.688889 655.555556L261.688889 655.555556zM76.8 416.622222l0 45.511111c0 19.911111 14.222222 34.133333 34.133333 34.133333l366.933333 0 0-113.777778L110.933333 382.488889C91.022222 382.488889 76.8 399.555556 76.8 416.622222L76.8 416.622222zM164.977778-15.733333 164.977778 314.222222l312.888889 0 0-420.977778c0-2.844444 0-8.533333 2.844444-11.377778L267.377778-118.133333C210.488889-118.133333 164.977778-69.777778 164.977778-15.733333L164.977778-15.733333zM859.022222-15.733333c0-56.888889-45.511111-102.4-99.555556-102.4l-213.333333 0c0 2.844444 2.844444 8.533333 2.844444 11.377778L548.977778 314.222222l312.888889 0L861.866667-15.733333 859.022222-15.733333zM947.2 416.622222c0-19.911111-14.222222-34.133333-34.133333-34.133333L546.133333 382.488889l0 113.777778 366.933333 0c17.066667 0 34.133333-14.222222 34.133333-34.133333L947.2 416.622222 947.2 416.622222zM947.2 416.622222"  horiz-adv-x="1024" />

    
    <glyph glyph-name="search" unicode="&#58899;" d="M995.830324-99.833186c-37.551478-37.555771-98.442595-37.555771-135.998366 0L690.099793 69.903272c-69.778525-44.731805-152.275014-71.438385-241.32652-71.438385C200.92894-1.535113 0.002848 199.385255 0.002848 447.229589 0.002848 695.079646 200.92894 896.000014 448.773273 896.000014c247.855781 0 448.770426-200.920368 448.770426-448.770426 0-89.047214-26.700857-171.536548-71.439816-241.333675l169.726442-169.725011C1033.386095-1.384867 1033.386095-62.277416 995.830324-99.833186L995.830324-99.833186zM448.773273 767.781528C271.747739 767.781528 128.23135 624.265139 128.23135 447.229589c0-177.031258 143.510665-320.547647 320.541923-320.547647 177.036982 0 320.547647 143.516389 320.547647 320.547647C769.32092 624.265139 625.810255 767.781528 448.773273 767.781528L448.773273 767.781528zM448.773273 767.781528"  horiz-adv-x="1024" />

    
    <glyph glyph-name="shouji" unicode="&#58887;" d="M543.4 832.1H215c-41 0-74.6-33.6-74.6-74.6v-746.4c0-41.1 33.6-74.6 74.6-74.6h328.4c41.1 0 74.6 33.6 74.6 74.6V757.5c0.1 41-33.5 74.6-74.6 74.6z m-208.9-59.7H424c8.2 0 14.9-6.7 14.9-14.9s-6.7-14.9-14.9-14.9h-89.6c-8.2 0-14.9 6.7-14.9 14.9 0 8.3 6.7 14.9 15 14.9z m44.8-806.1c-24.8 0-44.8 20-44.8 44.8 0 24.8 20 44.8 44.8 44.8 24.7 0 44.8-20 44.8-44.8-0.1-24.8-20.1-44.8-44.8-44.8z m208.9 119.4h-418V682.9h418v-597.2m219.3 688H616.6c1.2-5.2 1.8-10.7 1.8-16.2v-39.6H696c7.7 0 14-6.2 14-14 0-7.7-6.3-14-14-14h-77.5v-55.8h231V76h-231v-48c7.3 12 20.5 20.1 35.6 20.1 23.1 0 41.9-18.7 41.9-41.9s-18.7-41.9-41.9-41.9c-17.5 0-32.4 10.7-38.7 25.8-9.1-30.9-37.8-53.7-71.6-53.7h263.7c38.4 0 69.8 31.4 69.8 69.8V704c0 38.3-31.4 69.7-69.8 69.7"  horiz-adv-x="1024" />

    
    <glyph glyph-name="jiantou" unicode="&#58886;" d="M218.453 384l525.653-512 61.44 58.027-467.627 453.973 467.627 453.973-61.44 58.027z"  horiz-adv-x="1024" />

    
    <glyph glyph-name="dizhi" unicode="&#58888;" d="M512.120106 896A413.760824 413.760824 0 0 1 206.361926 207.894508l239.341041-303.963122a82.572659 82.572659 0 0 1 130.440868 0l236.050101 301.270535a403.289654 403.289654 0 0 1 108.301821 276.438902A411.66659 411.66659 0 0 1 512.120106 896z m247.717977-643.229047l-237.545983-303.364769a11.368699 11.368699 0 0 0-20.643164 0L259.615308 254.865187a346.14698 346.14698 0 0 0-86.461951 228.271518 338.966749 338.966749 0 1 0 677.634322 0 335.376633 335.376633 0 0 0-90.949596-230.365752zM514.21434 704.527167a207.628353 207.628353 0 0 1-145.698858-353.626387 204.935766 204.935766 0 0 1 350.634624 145.698858 207.628353 207.628353 0 0 1-59.83526 146.895564 204.63659 204.63659 0 0 1-145.100506 60.732789z m0-332.085694a124.756518 124.756518 0 1 0 123.260636 124.457341 122.96146 122.96146 0 0 0-123.260636-124.457341z"  horiz-adv-x="1024" />

    
    <glyph glyph-name="liwu1" unicode="&#58892;" d="M47.04 367.488v-364.032s13.184-45.312 24-56c9.28-9.152 48-20.032 48-20.032h768s34.88 18.688 44.032 28.032c8.128 8.384 24 40 24 40V367.488S929.28 384 915.072 384c-14.272 0-32.192-16.64-32.192-16.64l-3.648-347.84-343.68-0.064V363.52L512 384h-28.992l-27.968-24.512 4.032-340.032-332.032-4.032V384h-52.032l-27.968-16.512zM959.808 631.04h-160l27.52 24.32 8.384 27.52 19.84 40.32v40.32l-19.84 55.68-52.48 60.16h-84.48l-83.2-24.32-39.68-16-72.32-75.52-28.16 27.52s-16 32-27.52 40.32c-12.16 7.68-40.32 32-40.32 32l-35.84 16S298.752 896 286.592 896c-4.48 0-94.72-44.8-94.72-44.8s-37.76-58.24-30.08-140.16c22.4-60.16 84.48-80 84.48-80l-186.88-7.68s-42.88 3.84-42.88-80c0-67.84 51.2-67.84 51.2-67.84h899.84s44.8 0 39.68 64c5.056 91.52-47.424 91.52-47.424 91.52z m-627.84 34.56c-83.2 39.68-98.56 70.4-88.32 112 9.6 41.6 96.64 70.4 148.48 26.24 76.8-65.28 73.6-131.84 73.6-131.84s-49.92-46.08-133.76-6.4z m390.976 0c-93.44-38.4-150.976-6.4-150.976-6.4s-18.56 65.92 54.4 122.24c73.6 56.96 107.52 56.96 140.16 28.8 32.64-27.52 19.2-118.4-43.584-144.64z"  horiz-adv-x="1024" />

    
    <glyph glyph-name="yijiuhuanxin" unicode="&#58895;" d="M531.072-110.016c-250.048 0-453.376 203.456-453.376 453.44H13.376l96.192 128.448 85.184-128.448h-56.64a393.472 393.472 0 0 1 392.96-392.96c174.336 0 321.664 100.352 372.288 267.072 0 0 22.656 39.168 44.608 22.464 22.336-17.024 17.088-41.984 17.088-41.984-58.432-192.32-232.896-308.032-433.984-308.032zM640.448 661.312H376l-48.192-80.448v-433.472l75.584-67.072h210.432l76.8 67.072V590.592l-50.176 70.72z m-93.76-513.92H478.976v19.968h67.712v-19.968z m67.136 95.488H403.392V475.072h210.432v-232.192z m0 327.744H403.392v19.968h210.432v-19.968zM523.584 838.656a453.952 453.952 0 0 0 453.44-453.44h64.256l-96.256-128.512-85.12 128.512h56.768a393.472 393.472 0 0 1-393.088 392.96c-174.336 0-320.96-98.24-371.648-264.896 0 0-11.968-27.328-41.92-15.36s-13.632 39.936-13.632 39.936c58.496 192.256 226.048 300.8 427.2 300.8z"  horiz-adv-x="1041" />

    
    <glyph glyph-name="option" unicode="&#58880;" d="M508.749 223.50699999999995l-389.11 389.022c-13.026 13.026-32.433 13.026-45.371 0-12.939-13.026-13.026-32.433 0-45.371l408.516-408.43c6.469-6.469 19.495-13.026 25.964-13.026s19.495 0 25.964 6.469l414.985 414.985c13.026 13.026 13.026 32.433 0 45.371-13.026 12.939-32.433 13.026-45.371 0l-395.577-389.021z"  horiz-adv-x="1024" />

    
    <glyph glyph-name="jiantou-copy-copy" unicode="&#58987;" d="M512-30.476c229.361 7.105427357601002e-14 414.476 186.01800000000017 414.47599999999994 414.4760000000001s-186.01800000000017 414.476-414.4760000000001 414.47599999999994-414.476-186.01800000000017-414.47599999999994-414.4760000000001 185.11500000000007-414.47599999999994 414.4760000000001-414.47599999999994zM365.71400000000017 406.575l205.88299999999992 206.78700000000006c6.320999999999998 6.321000000000002 14.447999999999997 9.030000000000001 22.575 9.03000000000001s16.254-2.7089999999999943 22.575-9.02999999999999c12.642000000000005-12.641999999999996 12.642000000000005-32.507999999999996 1.4210854715202004e-14-45.15l-184.21199999999993-184.21200000000002 183.30900000000008-181.50299999999996c12.642000000000005-12.641999999999996 12.642000000000005-32.507999999999996 1.0658141036401503e-14-44.245999999999995-12.641999999999996-12.642000000000005-32.507999999999996-12.642000000000005-44.245999999999995-1.0658141036401503e-14l-205.88400000000004 204.07799999999992c-6.321000000000002 6.320999999999998-9.030000000000003 13.544999999999995-9.03000000000001 22.575-2.220446049250313e-15 7.224 2.7089999999999943 15.351 9.029999999999994 21.672000000000004z"  horiz-adv-x="1024" />

    
    <glyph glyph-name="jiantou1" unicode="&#58920;" d="M281.344 892.16l-51.264-50.816 461.376-457.28-461.376-457.28 51.264-50.816 512.64 508.096L281.344 892.16z m0 0"  horiz-adv-x="1024" />

    
    <glyph glyph-name="jiantou2" unicode="&#58901;" d="M510.141 815.654c-219.418 0-396.508-177.954-396.508-396.51 0-218.553 177.953-396.507 396.508-396.507S906.65 200.59 906.65 419.144c0 218.556-177.09 396.51-396.509 396.51zM650.086 397.55L453.128 199.727c-6.047-6.047-13.822-8.638-21.596-8.638s-15.55 2.591-21.596 8.638c-12.093 12.094-12.093 31.098 0 43.193l176.227 176.225L410.8 592.78c-12.094 12.095-12.094 31.098 0 42.33 12.093 12.093 31.098 12.093 42.329 0l196.957-195.231c6.046-6.048 8.637-12.96 8.637-21.597 0.001-6.912-2.59-14.687-8.637-20.732z"  horiz-adv-x="1024" />

    
    <glyph glyph-name="chat" unicode="&#58962;" d="M163.2256 144.964267a72.260267 72.260267 0 0 0-72.123733 72.362666V567.227733c0 39.936 32.256 72.362667 72.123733 72.362667H761.514667c39.867733 0 72.123733-32.426667 72.123733-72.362667v-349.866666c0-39.936-32.256-72.3968-72.123733-72.3968H385.399467l-116.565334-115.8144a27.3408 27.3408 0 0 0-46.626133 19.285333l-0.341333 96.529067H163.2256z m113.425067-30.9248l78.165333 77.653333a27.3408 27.3408 0 0 0 19.285333 7.953067H761.514667c9.591467 0 17.442133 7.8848 17.442133 17.681066V567.227733a17.578667 17.578667 0 0 1-17.442133 17.681067H163.2256a17.578667 17.578667 0 0 1-17.408-17.681067v-349.866666c0-9.8304 7.850667-17.7152 17.408-17.7152h85.879467c15.086933 0 27.306667-12.1856 27.3408-27.2384l0.2048-58.368z m566.203733 146.0224V314.709333h33.962667c9.557333 0 17.408 7.850667 17.408 17.681067V682.325333a17.544533 17.544533 0 0 1-17.408 17.681067H278.528a17.544533 17.544533 0 0 1-17.442133-17.681067v-25.053866H206.4384V682.325333c0 39.936 32.256 72.362667 72.123733 72.362667h598.254934c39.8336 0 72.0896-32.426667 72.0896-72.362667V332.458667c0-39.936-32.221867-72.362667-72.0896-72.362667h-33.962667zM269.653333 397.277867c0 20.753067 16.725333 37.546667 37.307734 37.546666 20.650667 0 37.376-16.7936 37.376-37.546666 0-20.718933-16.725333-37.546667-37.376-37.546667a37.444267 37.444267 0 0 0-37.307734 37.546667z m149.333334 0c0 20.718933 16.725333 37.546667 37.376 37.546666 20.5824 0 37.307733-16.827733 37.307733-37.546666 0-20.753067-16.725333-37.546667-37.307733-37.546667a37.444267 37.444267 0 0 0-37.376 37.546667z m184.832-33.792c-19.592533 0-35.464533 15.9744-35.464534 35.669333s15.872 35.6352 35.498667 35.6352c19.5584 0 35.4304-15.940267 35.4304-35.6352S623.4112 363.52 603.818667 363.52z"  horiz-adv-x="1024" />

    
    <glyph glyph-name="jiantou3" unicode="&#59240;" d="M922.24 376.96a416 416 0 1 0-416 416 416 416 0 0 0 416-416z m-41.92 0a374.08 374.08 0 1 1-374.08-373.92A375.04 375.04 0 0 1 880 376.64zM566.88 561.92l167.04-184.48-169.6-183.04A20.8 20.8 0 0 0 534.88 224l123.68 132.48H318.88a20.8 20.8 0 1 0 0 41.6h340.96l-122.4 134.72a20.8 20.8 0 0 0 29.44 29.44z"  horiz-adv-x="1024" />

    
    <glyph glyph-name="icon-right" unicode="&#58891;" d="M500 896c-276.1563 0-500-223.8438-500-500s223.8438-500 500-500 500 223.8438 500 500-223.8438 500-500 500zM500-10.25c-224.375 0-406.25 181.875-406.25 406.25s181.875 406.25 406.25 406.25 406.25-181.875 406.25-406.25-181.875-406.25-406.25-406.25zM794.1875 440.1875l-250 250c-24.4063 24.4063-63.9688 24.4063-88.375 0s-24.4063-63.9688 0-88.375l143.3125-143.3125h-349.125c-34.5313 0-62.5-27.9688-62.5-62.5s27.9688-62.5 62.5-62.5h349.125l-143.3125-143.3125c-24.4063-24.4063-24.4063-63.9688 0-88.4063 12.2188-12.1875 28.1875-18.3125 44.1875-18.3125s32 6.0938 44.1875 18.3125l250 250c24.4063 24.4063 24.4063 63.9688 0 88.375z"  horiz-adv-x="1000" />

    
    <glyph glyph-name="weixiu" unicode="&#58889;" d="M279.9007 434.013c-17.873 0-35.746 6.796-49.36 20.387L36.0257 648.913c-9.1 9.1-9.1 23.808 0 32.908s23.808 9.1 32.907 0l194.514-194.513c9.146-9.1 23.878-9.077 32.93 0l109.406 109.428c4.375 4.375 6.772 10.193 6.772 16.454s-2.42 12.102-6.772 16.477L211.5497 823.9c-9.1 9.1-9.1 23.808 0 32.908s23.808 9.1 32.907 0l194.235-194.234c13.149-13.15 20.41-30.697 20.41-49.385s-7.261-36.213-20.41-49.385L329.2857 454.377c-13.614-13.568-31.488-20.364-49.384-20.364zM891.3687-119.552c-34.373 0-68.7 13.08-94.86 39.238l-283.53 283.531c-9.1 9.1-9.1 23.808 0 32.908s23.807 9.1 32.907 0L829.4407-47.43c34.187-34.164 89.716-34.164 123.904 0 34.117 34.141 34.117 89.717 0 123.904L669.7657 360.006c-9.1 9.076-9.1 23.808 0 32.907s23.808 9.1 32.908 0l283.578-283.531c52.27-52.317 52.27-137.426 0-189.696-26.158-26.159-60.509-39.238-94.883-39.238zM367.0577 157.184c-94.976 0-188.486 37.12-259.63 108.288C0.6287 372.247-29.9993 536.762 31.1857 674.816c5.19 11.73 18.874 17.105 30.72 11.846 11.753-5.213 17.036-18.967 11.846-30.697-53.458-120.6-26.694-264.285 66.583-357.562 100.678-100.655 252.602-123.439 378.159-56.553 11.31 6.051 25.46 1.722 31.488-9.611 6.05-11.358 1.745-25.438-9.612-31.488-54.993-29.278-114.455-43.567-173.312-43.567zM705.5597 435.107c-1.49 0-3.026 0.14-4.538 0.442-12.614 2.49-20.806 14.732-18.316 27.346 20.876 105.541-11.985 213.922-87.948 289.908-93.323 93.3-237.056 120.017-357.608 66.56-11.87-5.213-25.554 0.116-30.72 11.846-5.213 11.752 0.093 25.507 11.846 30.696 137.96 61.208 302.568 30.627 409.39-76.194 86.97-86.97 124.602-211.038 100.724-331.87-2.21-11.077-11.938-18.734-22.83-18.734z"  horiz-adv-x="1026" />

    
    <glyph glyph-name="sevenday-copy" unicode="&#58881;" d="M511.999363-127.93600000000004c-282.303647 0-511.99936 229.631713-511.99936 511.99936 0 282.239647 229.695713 511.87136 511.99936 511.87136a506.879366 506.879366 0 0 0 228.863714-53.951932l-28.607964-57.279929a443.327446 443.327446 0 0 1-200.25575 47.167941c-246.975691 0-447.99944-200.959749-447.99944-447.87144 0-246.975691 200.959749-447.99944 447.99944-447.99944s446.975441 233.727708 446.975441 480.767399c0 16.447979 0 16.447979-107.007866 11.391986l119.231851 228.863714s20.031975 2.623997 44.031945-151.103811 8.767989-102.975871 8.767989-121.855848c0-282.367647-229.759713-511.99936-511.99936-511.99936zM480.703402 94.01572199999998l-56.767929 29.631963 196.351755 376.959529v36.479955H376.319532v63.99992h307.967616v-116.159855z"  horiz-adv-x="1028" />

    
    <glyph glyph-name="jiantouarrow483" unicode="&#58945;" d="M729.86624001 384c0-13.70112-5.23264-27.40224-15.66720001-37.84704l-328.704-328.69376c-20.91008-20.91008-54.80448-20.91008-75.70432 0-20.89984 20.89984-20.89984 54.79423999 0 75.70432L600.63744 384l-290.83648 290.83648c-20.89984 20.91008-20.89984 54.80448 0 75.70432 20.89984 20.91008 54.79424 20.91008 75.70432 0l328.704-328.69376C724.64384 411.40224 729.86624 397.70112 729.86624001 384z"  horiz-adv-x="1024" />

    
    <glyph glyph-name="jiantouyou" unicode="&#58994;" d="M512-128C230.4-128 0 102.4 0 384S230.4 896 512 896s512-230.4 512-512-230.4-512-512-512z m0 967.111111C261.688889 839.111111 56.888889 634.311111 56.888889 384s204.8-455.111111 455.111111-455.111111 455.111111 204.8 455.111111 455.111111S762.311111 839.111111 512 839.111111zM674.133333 355.555556H256c-17.066667 0-28.444444 11.377778-28.444444 28.444444s11.377778 28.444444 28.444444 28.444444h418.133333c17.066667 0 28.444444-11.377778 28.444445-28.444444s-14.222222-28.444444-28.444445-28.444444zM568.888889 193.422222c-8.533333 0-14.222222 2.844444-19.911111 8.533334-11.377778 11.377778-11.377778 28.444444 0 39.822222l142.222222 142.222222-142.222222 139.377778c-11.377778 11.377778-11.377778 28.444444 0 39.822222s28.444444 11.377778 39.822222 0l162.133333-162.133333c5.688889-5.688889 8.533333-11.377778 8.533334-19.911111s-2.844444-14.222222-8.533334-19.911112l-162.133333-162.133333c-5.688889-2.844444-11.377778-5.688889-19.911111-5.688889z"  horiz-adv-x="1024" />

    
    <glyph glyph-name="chongzhi" unicode="&#59111;" d="M725.48433076 350.29194746999997a31.46084855 31.46084855 0 0 1-31.46084854 31.46084927H329.97651778a31.46084855 31.46084855 0 0 1 0-62.92169781h364.04696444a31.46084855 31.46084855 0 0 1 31.46084853 31.46084854zM1170.43061983 310.26925399000004H900.51900961l50.6294946 50.62949389a31.46084855 31.46084855 0 0 1-44.4946289 44.4946289l-103.97810494-103.97810494a32.42714602 32.42714602 0 0 1 0-45.1912617l103.97810494-104.00057675a31.57320907 31.57320907 0 0 1 44.4946289 0 31.57320907 31.57320907 0 0 1 0 44.4946289l-50.6294946 50.62949388H1170.43061983a31.46084855 31.46084855 0 0 1 31.46084854 31.46084928 31.46084855 31.46084855 0 0 1-31.46084854 31.46084854zM329.97651778 228.94295980000004a31.46084855 31.46084855 0 0 1 0-62.92169708h224.72034852a31.46084855 31.46084855 0 0 1 0 62.92169708zM1094.025701 754.78857422h-78.65212136a31.46084855 31.46084855 0 0 1 0-62.92169709h83.1465286a40.56202284 40.56202284 0 0 0 40.44966304-40.44966304v-78.65212209H204.13312288V651.4172141a40.56202284 40.56202284 0 0 0 40.44966302 40.44966302h550.56485246c0.74157715 0 1.4831543-0.11236053 2.24720327-0.11236052a31.46084855 31.46084855 0 0 1 0 62.92169709c-0.76404896 0-1.50562611 0-2.24720327-0.1123598V754.78857422H249.07719315A108.18037568 108.18037568 0 0 1 141.21142578 646.92280685v-525.8456137a108.18037568 108.18037568 0 0 1 107.86576737-107.86576737h844.94850785a108.18037568 108.18037568 0 0 1 107.86576737 107.86576737v47.19127283a31.46084855 31.46084855 0 0 1-62.69697677 0h-0.22472032v-51.68568008a40.56202284 40.56202284 0 0 0-40.44966304-40.44966303H244.5827859a40.56202284 40.56202284 0 0 0-40.44966302 40.44966303V509.84339491h934.8366484v-119.1017844a31.46084855 31.46084855 0 0 1 62.92169709 0V646.92280685a108.18037568 108.18037568 0 0 1-107.86576737 107.86576737z"  horiz-adv-x="1464" />

    
    <glyph glyph-name="chongzhi1" unicode="&#58972;" d="M74.839 575.4H949.16v30.018c0 54.47-42.38 98.73-93.552 98.73H168.39c-51.172 0-93.552-44.26-93.552-98.73v-30.017z m874.322-46.85H74.84v-365.953c0-54.484 42.378-98.746 93.552-98.746h409.933c12.934 0 23.419-10.488 23.419-23.425 0-12.938-10.485-23.426-23.42-23.426H168.392C90.885 17 28 82.68 28 162.597V605.418C28 685.322 90.888 751 168.391 751H855.61C933.112 751 996 685.322 996 605.418v-337.265c0-12.938-10.485-23.426-23.42-23.426-12.934 0-23.419 10.488-23.419 23.426V528.55zM155.615 376h286.776c30.13 0 30.161 47 0 47H155.615c-30.13 0-30.177-47 0-47M597.61 376h96.78c30.123 0 30.17 47 0 47h-96.78c-30.123 0-30.17-47 0-47M376.61 223.467c6.645 0 12.14 5.537 12.14 12.24v5.586c0 6.703-5.495 12.24-12.14 12.24H183.405c-6.652 0-12.156-5.542-12.156-12.24v-5.586c0-6.698 5.504-12.24 12.156-12.24H376.61z m0-31.467H183.405C159.496 192 140 211.63 140 235.707v5.586C140 265.369 159.496 285 183.406 285H376.61C400.52 285 420 265.37 420 241.293v-5.586C420 211.631 400.52 192 376.61 192zM829.637 120.664v-81.014h-46.774 46.774c0-30.231-46.774-30.169-46.774 0v81.014h-74.271c-30.154 0-30.091 46.895 0 46.895h74.271v70.785c0 30.231 46.774 30.185 46.774 0v-70.785h68.777c30.138 0 30.091-46.895 0-46.895h-68.777z"  horiz-adv-x="1024" />

    
    <glyph glyph-name="Fma" unicode="&#58882;" d="M507.0315905 805.23644435c-231.64242622 0-419.3973503-187.75492176-419.39735029-419.31375279 0-231.64242622 187.75492176-419.48094545 419.39735029-419.48094546s419.3973503 187.83851695 419.39735028 419.48094546c0 231.55883101-187.75492176 419.31375508-419.39735028 419.31375279z m0-762.72302448c-189.67761333 0-343.40927168 153.73165837-343.40927173 343.40927169 0 189.59401812 153.73165837 343.32567653 343.40927173 343.32567418 189.67761333 0 343.40927168-153.73165837 343.40927167-343.32567418 0-189.67761333-153.73165837-343.40927168-343.40927167-343.40927169zM725.6336797 390.2489112v-64.01092386H403.97165625v-205.82412739h-64.01092391v464.34075427h64.01092391v-0.76090196h314.34784689v-64.01092388h-314.34784689v-129.73387718z"  horiz-adv-x="1024" />

    
    <glyph glyph-name="arrow-top" unicode="&#58922;" d="M910.222222 99.55555600000002c-17.066667 0-34.133333 5.688889-45.511111 17.066666L551.822222 486.4c-11.377778 5.688889-17.066667 11.377778-34.133333 11.377778-5.688889 0-22.755556-5.688889-28.444445-11.377778l-329.955555-364.088889c-22.755556-22.755556-56.888889-22.755556-79.644445-5.688889-22.755556 22.755556-22.755556 56.888889-5.688888 79.644445l329.955555 364.088889c28.444444 34.133333 73.955556 51.2 119.466667 51.2s85.333333-22.755556 119.466666-56.888889l312.888889-364.088889c22.755556-22.755556 17.066667-56.888889-5.688889-79.644445-11.377778-5.688889-28.444444-11.377778-39.822222-11.377777z"  horiz-adv-x="1024" />

    
    <glyph glyph-name="icon_jiantou-shang" unicode="&#58961;" d="M510.021818 673.163636l499.176727-499.362909a46.219636 46.219636 0 0 0-0.325818-65.722182 47.127273 47.127273 0 0 0-66.257454 0.256L510.254545 540.904727 80.896 108.450909a47.104 47.104 0 0 0-66.257455-0.488727 46.219636 46.219636 0 0 0-0.535272 65.722182L510.021818 673.163636z m0 0"  horiz-adv-x="1024" />

    
    <glyph glyph-name="icon_jiantou-xia" unicode="&#58963;" d="M513.954909 94.836364L14.824727 594.199273a46.196364 46.196364 0 0 0 0.302546 65.722182 47.173818 47.173818 0 0 0 66.280727-0.279273l432.337455-432.570182L943.080727 659.549091a47.127273 47.127273 0 0 0 66.280728 0.488727c8.820364-8.610909 13.870545-20.410182 13.986909-32.744727a46.312727 46.312727 0 0 0-13.474909-32.977455L513.954909 94.836364z m0 0"  horiz-adv-x="1024" />

    
    <glyph glyph-name="icon_jiantou-zuo" unicode="&#58964;" d="M722.315636 881.873455a46.173091 46.173091 0 0 0 65.722182-0.512 47.150545 47.150545 0 0 0-0.488727-66.280728L355.118545 385.745455l432.54691-432.360728c18.222545-18.292364 18.338909-47.825455 0.279272-66.257454a46.219636 46.219636 0 0 0-65.722182-0.302546L222.859636 385.978182 722.315636 881.873455zM222.859636 385.978182"  horiz-adv-x="1024" />

    
    <glyph glyph-name="icon_jiantou-you" unicode="&#58965;" d="M801.186909 385.978182L301.824-113.175273a46.242909 46.242909 0 0 0-65.722182 0.302546 47.127273 47.127273 0 0 0 0.279273 66.257454l432.546909 432.360728L236.474182 815.080727A47.127273 47.127273 0 0 0 235.985455 881.361455a46.219636 46.219636 0 0 0 65.745454 0.512l499.456-495.895273z m0 0"  horiz-adv-x="1024" />

    
    <glyph glyph-name="jiantoushang" unicode="&#58883;" d="M113.777778 668.444444c17.066667 0 34.133333-5.688889 45.511111-17.066666L472.177778 281.6c11.377778-5.688889 17.066667-11.377778 34.133333-11.377778 5.688889 0 22.755556 5.688889 28.444445 11.377778l329.955555 364.088889c22.755556 22.755556 56.888889 22.755556 79.644445 5.688889 22.755556-22.755556 22.755556-56.888889 5.688888-79.644445l-329.955555-364.088889c-28.444444-34.133333-73.955556-51.2-119.46666699-51.2s-85.333333 22.755556-119.46666601 56.888889l-312.888889 364.088889c-22.755556 22.755556-17.066667 56.888889 5.688889 79.644445 11.377778 5.688889 28.444444 11.377778 39.822222 11.377777z"  horiz-adv-x="1024" />

    
    <glyph glyph-name="jiantou4" unicode="&#58912;" d="M511.435502 894.871003C228.62183 894.871003 0.564498 665.684675 0.564498 384.282249c0-281.684675 229.186329-510.871003 510.871004-510.871003s510.871003 229.186329 510.871003 510.871003C1022.024256 665.684675 793.966924 894.871003 511.435502 894.871003z m180.074972-538.531422l-253.742007-254.871003c-7.902977-7.902977-17.781698-11.007718-27.942668-11.007718-9.878721 0-20.039691 3.38699-27.942668 11.007718-15.523705 15.523705-15.523705 40.079383 0 55.603087l226.928335 226.928335-225.799338 223.541345c-15.523705 15.523705-15.523705 40.079383 0 54.474091 15.523705 15.523705 40.079383 15.523705 54.47409 0l253.742007-251.484014c7.902977-7.902977 11.007718-16.652701 11.007718-27.942668 0.564498-8.467475-2.822492-18.346196-10.725469-26.249173z m0 0"  horiz-adv-x="1024" />

    
    <glyph glyph-name="ShoppingCart_" unicode="&#59577;" d="M977.454545 128H395.636364a46.545455 46.545455 0 0 0-45.149091 35.607273L232.727273 651.403636a5.818182 5.818182 0 0 0 0 1.629091L196.189091 802.909091H46.545455a46.545455 46.545455 0 0 0 0 93.090909h186.181818a46.545455 46.545455 0 0 0 45.149091-35.607273L314.414545 709.818182H1070.545455a46.545455 46.545455 0 0 0 35.84-16.756364 46.545455 46.545455 0 0 0 10.705454-38.4l-93.090909-488.727273A46.545455 46.545455 0 0 0 977.454545 128z m-545.28 93.090909h506.88l75.17091 395.636364H336.756364zM481.047273-46.545455m-81.454546 0a81.454545 81.454545 0 1 1 162.909091 0 81.454545 81.454545 0 1 1-162.909091 0ZM899.956364-46.545455m-81.454546 0a81.454545 81.454545 0 1 1 162.909091 0 81.454545 81.454545 0 1 1-162.909091 0Z"  horiz-adv-x="1117" />

    
    <glyph glyph-name="left-arrow" unicode="&#58884;" d="M512-30.476c229.361 0 414.476 186.018 414.476 414.476s-186.018 414.476-414.476 414.476-414.476-186.018-414.476-414.476 185.115-414.476 414.476-414.476zM365.714 406.575l205.883 206.787c6.321 6.321 14.448 9.03 22.57499999 9.03s16.254-2.709 22.57500001-9.03c12.642-12.642 12.642-32.508-1e-8-45.15l-184.21199999-184.212 183.309-181.503c12.642-12.642 12.642-32.508 0-44.246-12.642-12.642-32.508-12.642-44.246 0l-205.884 204.078c-6.321 6.321-9.03 13.54500001-9.03 22.575 0 7.224 2.709 15.351 9.03 21.672z"  horiz-adv-x="1024" />

    
    <glyph glyph-name="shouji1" unicode="&#58890;" d="M561.066667 853.333333H196.266667c-42.666667 0-78.933333-34.133333-78.933334-78.933333v-780.8c0-42.666667 34.133333-78.933333 78.933334-78.933333h364.8c42.666667 0 78.933333 34.133333 78.933333 78.933333V774.4C640 819.2 605.866667 853.333333 561.066667 853.333333zM332.8 791.466667H426.666667c8.533333 0 14.933333-6.4 14.933333-14.933334s-6.4-17.066667-14.933333-17.066666h-93.866667c-8.533333 0-14.933333 6.4-14.933333 14.933333-2.133333 8.533333 6.4 17.066667 14.933333 17.066667z m46.933333-844.8c-25.6 0-46.933333 21.333333-46.933333 46.933333s21.333333 46.933333 46.933333 46.933333c25.6 0 46.933333-21.333333 46.933334-46.933333s-21.333333-46.933333-46.933334-46.933333z m209.066667 125.866666H170.666667V697.6h418.133333v-625.066667zM849.066667 791.466667h-211.2c2.133333-4.266667 2.133333-10.666667 2.133333-14.933334v-40.533333h81.066667c8.533333 0 14.933333-6.4 14.933333-14.933333 0-8.533333-6.4-14.933333-14.933333-14.933334H640v-57.6h232.533333V64H640v-51.2c8.533333 12.8 21.333333 21.333333 36.266667 21.333333 23.466667 0 42.666667-19.2 42.666666-42.666666s-19.2-42.666667-42.666666-42.666667c-19.2 0-34.133333 10.666667-40.533334 27.733333-8.533333-32-38.4-55.466667-74.666666-55.466666h288c40.533333 0 72.533333 32 72.533333 72.533333v725.333333c0 40.533333-34.133333 72.533333-72.533333 72.533334z"  horiz-adv-x="1024" />

    
    <glyph glyph-name="simqia" unicode="&#60020;" d="M728.61877653 822.17674453c-4.9391904 4.9391904-21.1679584 11.2895776-28.22394453 11.2895776H147.91111147c-11.2895776 0-20.46236053-9.17278187-20.46236054-20.46236053v-858.0079232c0-11.2895776 9.17278187-20.46236053 20.46236054-20.46236053H876.08888853c11.2895776 0 20.46236053 9.17278187 20.46236054 20.46236053V645.77708907c0 5.64478933-6.3503872 21.1679584-10.58397974 25.40154986l-157.3484928 150.9981056z m200.39000854-106.545392c16.228768-15.52317013 29.6351424-47.2751072 29.6351424-69.85426346v-690.78105067c0-45.15831147-36.69112853-81.84944-82.55503894-81.84944107H147.91111147c-45.15831147 0-82.55503893 36.69112853-82.55503894 82.55503894V813.0039616c0 45.15831147 36.69112853 82.55503893 82.55503894 82.55503893h553.18931946c22.57915627 0 54.3310944-12.70077547 70.5598624-28.22394453l157.34849174-151.70370347zM408.9826016 724.8041344000001c0 11.2895776-9.17278187 20.46236053-20.46236053 20.46236053-11.2895776 0-20.46236053-9.17278187-20.46235947-20.46236053v-115.01257493c0-11.2895776 9.17278187-20.46236053 20.46235947-20.46236054 11.2895776 0 20.46236053 9.17278187 20.46236053 20.46236054V724.8041344000001zM408.9826016 325.43531413000005v40.92472H305.96520213v-40.92472h103.01739947zM717.32919893 325.43531413000005v40.92472H573.38708053v-40.92472h143.9421184zM717.32919893 161.03083519999996v40.92472H615.0173984v-40.92472h102.31180053zM408.9826016 161.03083519999996v40.92472H305.96520213v-40.92472h103.01739947zM512 724.8041344000001c0 11.2895776-9.17278187 20.46236053-20.46236053 20.46236053s-20.46236053-9.17278187-20.46235947-20.46236053v-115.01257493c0-11.2895776 9.17278187-20.46236053 20.46235947-20.46236054s20.46236053 9.17278187 20.46236053 20.46236054V724.8041344000001zM305.96520213 724.8041344000001c0 11.2895776-9.17278187 20.46236053-20.46235946 20.46236053-11.2895776 0-20.46236053-9.17278187-20.46236054-20.46236053v-115.01257493c0-11.2895776 9.17278187-20.46236053 20.46236054-20.46236054 11.2895776 0 20.46236053 9.17278187 20.46235946 20.46236054V724.8041344000001zM449.9073216 469.3774336h-40.92472v-411.3639968h40.92472V469.3774336zM615.0173984 325.43531413000005h-40.92472v-267.42187733H615.0173984V325.43531413000005zM635.47975893 58.01343680000002c45.15831147 0 81.84944 36.69112853 81.84944 81.84944V386.82239467c0 45.15831147-36.69112853 81.84944-81.84944 81.84944h-246.95951786c-45.15831147 0-81.84944-36.69112853-81.84944-81.84944v-246.95951787c0-45.15831147 36.69112853-81.84944 81.84944-81.84944h246.95951786zM265.04048213 139.86287679999998V386.82239467c0 67.73746773 55.03669227 123.47975893 123.47975894 123.47975893h246.95951786c67.73746773 0 123.47975893-55.03669227 123.47975894-123.47975893v-246.95951787c0-67.73746773-55.03669227-123.47975893-123.47975894-123.47975893h-246.95951786c-68.44306667 0.70559893-123.47975893 55.7422912-123.47975894 123.47975893z"  horiz-adv-x="1024" />

    
    <glyph glyph-name="xiaomishangchengFma" unicode="&#58893;" d="M569.642384 87.311258c-120.591258 0-218.701987 98.110728-218.701987 218.701987s98.110728 218.701987 218.701987 218.701987 218.701987-98.110728 218.701987-218.701987-98.110728-218.701987-218.701987-218.701987z m-3.390728 386.543047c-92.546543 0-167.84106-75.294517-167.84106-167.84106s75.294517-167.84106 167.84106-167.84106 167.84106 75.294517 167.841059 167.84106-75.294517 167.84106-167.841059 167.84106zM569.642384 523.019868c119.658808 0 217.006623-97.347815 217.006623-217.006623s-97.347815-217.006623-217.006623-217.006622-217.006623 97.347815-217.006622 217.006622 97.347815 217.006623 217.006622 217.006623m-3.390728-386.543047c93.482384 0 169.536424 76.05404 169.536423 169.536424s-76.05404 169.536424-169.536423 169.536424-169.536424-76.05404-169.536424-169.536424 76.05404-169.536424 169.536424-169.536424m3.390728 389.933775c-121.720371 0-220.397351-98.67698-220.397351-220.397351s98.67698-220.397351 220.397351-220.397351 220.397351 98.67698 220.397351 220.397351-98.67698 220.397351-220.397351 220.397351z m-3.390728-386.543046c-91.759894 0-166.145695 74.385801-166.145696 166.145695s74.385801 166.145695 166.145696 166.145695 166.145695-74.385801 166.145695-166.145695-74.385801-166.145695-166.145695-166.145695zM502.621245 199.432477V395.86755h158.547073v-45.89351h-104.485298v-39.542676h84.378278v-45.8969h-84.378278v-65.101987zM659.472954 394.172185v-42.502781h-104.485298v-42.933404h84.381669v-42.502781h-84.381669v-65.101987h-50.671047V394.172185h155.156345m3.390728 3.390729h-161.941192v-199.822411h57.452503v65.101987h84.381669v49.284238h-84.381669v36.151947h104.485298V397.562914h0.003391z"  horiz-adv-x="1098" />

    


  </font>
</defs>
</svg>
